<?xml version="1.0" encoding="utf-8"?>
<!-- Generator: Adobe Illustrator 22.0.0, SVG Export Plug-In . SVG Version: 6.00 Build 0)  -->
<svg fill="#ffffff" version="1.0" id="Layer_1" xmlns="http://www.w3.org/2000/svg" xmlns:xlink="http://www.w3.org/1999/xlink" x="0px" y="0px"
	 viewBox="0 0 400 400" enable-background="new 0 0 400 400" xml:space="preserve">
<path  d="M352.3,123.8H47.7c-13.6,0-24.8-11.1-24.8-24.8v0c0-13.6,11.1-24.8,24.8-24.8h304.6
	c13.6,0,24.8,11.1,24.8,24.8v0C377.1,112.7,365.9,123.8,352.3,123.8z M377.1,200L377.1,200c0-13.6-11.1-24.8-24.8-24.8H47.7
	c-13.6,0-24.8,11.1-24.8,24.8v0c0,13.6,11.1,24.8,24.8,24.8h304.6C365.9,224.8,377.1,213.6,377.1,200z M377.1,300.9L377.1,300.9
	c0-13.6-11.1-24.8-24.8-24.8H47.7c-13.6,0-24.8,11.1-24.8,24.8v0c0,13.6,11.1,24.8,24.8,24.8h304.6
	C365.9,325.7,377.1,314.6,377.1,300.9z"/>
</svg>
