<?xml version="1.0" encoding="utf-8"?>
<!-- Generator: Adobe Illustrator 22.0.0, SVG Export Plug-In . SVG Version: 6.00 Build 0)  -->
<svg version="1.0" id="Layer_1" xmlns="http://www.w3.org/2000/svg" xmlns:xlink="http://www.w3.org/1999/xlink" x="0px" y="0px"
	 viewBox="0 0 400 400" enable-background="new 0 0 400 400" xml:space="preserve">
<path fill="#ffffff" d="M361.1,298c-4.2,5-14,16.5-28.4,16.1c-0.8,0-1.7-0.1-2.5-0.2c-12.8-1.6-22.2-13-22.6-25.9
	c-1.1-40-2.2-80-3.3-120c0-1.5-0.2-2.9-0.4-4.4c-9-47.7-49.9-83.4-98.5-85.6c-42.1-1.9-80.8,21.8-99,58.5c-4.9,9.9-7.4,20.8-8,31.8
	l-6.6,115.8c-0.9,15.2-14.1,26.9-29.2,25.4c-8.5-0.8-17.7-3.6-25.2-10.3C21.1,285,22.5,262,23.6,242.4c0.8-12.9,1.6-27,11.1-38.3
	c3.2-3.9,7.4-7.3,16.1-17.3c2.4-2.8,4.6-5.4,6.5-7.7c2.8-3.5,4.8-7.6,5.6-12C74.8,96.6,132.5,45.1,196.7,43
	c56.2-1.9,108,34.6,129.8,82c7.2,15.7,10.1,31,11,44.3c0.5,7.9,4.2,15.4,10.6,20.1c3.9,2.8,7.9,6.4,11.8,11
	C383,227.9,382.1,273.4,361.1,298z M199,152.2L199,152.2c-7.6,0-13.8,6.2-13.8,13.8v177.3c0,7.6,6.2,13.8,13.8,13.8h0
	c7.6,0,13.8-6.2,13.8-13.8V166C212.8,158.4,206.5,152.2,199,152.2z M240.7,191.1L240.7,191.1c-7.6,0-13.8,6.2-13.8,13.8v99.4
	c0,7.6,6.2,13.8,13.8,13.8h0c7.6,0,13.8-6.2,13.8-13.8v-99.4C254.5,197.3,248.3,191.1,240.7,191.1z M160,191.1L160,191.1
	c-7.6,0-13.8,6.2-13.8,13.8v99.4c0,7.6,6.2,13.8,13.8,13.8h0c7.6,0,13.8-6.2,13.8-13.8v-99.4C173.8,197.3,167.6,191.1,160,191.1z
	 M120.2,215.2c-7.6,0-13.8,6.2-13.8,13.8v51.2c0,7.6,6.2,13.8,13.8,13.8s13.8-6.2,13.8-13.8V229C134,221.4,127.8,215.2,120.2,215.2z
	 M278.5,215.2c-7.6,0-13.8,6.2-13.8,13.8v51.2c0,7.6,6.2,13.8,13.8,13.8s13.8-6.2,13.8-13.8V229C292.2,221.4,286,215.2,278.5,215.2z
	"/>
</svg>
